<svg viewBox="0 0 173 47" version="1.1" xmlns="http://www.w3.org/2000/svg" xml:space="preserve" fill-rule="evenodd"
    clip-rule="evenodd" stroke-linejoin="round" stroke-miterlimit="2">
    <path
        d="M82.3 23.4a12.2 12.2 0 01-7.9-11.5 12 12 0 0124 0c0 3.4-1.5 6.6-3.1 8.7-6.2 8.3 1.1 20 14 16.9 13-3.3 13.4-11.8 22.7-11.8 11.6 0 17.5 21.3 41 21.3H-.1c10.5-.4 12-10.6 18.4-14.6 13.1-8.2 14.3 6.8 25.8 6.3 5.2-.3 8.6-5.3 17.3-4 8.7 1 14 8.8 20.6 5.8 6.5-3 8.5-13.6.4-17.1z"
        fill="rgba(255, 255, 255, 0.85)  " />
    <path d="M91 8l-4.6 4.5L81.8 8l-1.4 1.4 6 6 6-6L91 8z" fill-rule="nonzero" /></svg>