<svg clip-rule="evenodd" fill-rule="evenodd" stroke-linejoin="round" stroke-miterlimit="2" viewBox="0 0 36 36" xmlns="http://www.w3.org/2000/svg"><path d="M29.482 9.016a3.045 3.045 0 0 1 3.694.939 3.044 3.044 0 1 1-5.148.456c-3.813-3.046-9.347-3.259-13.426-.19a11.6 11.6 0 0 0-.604.489c-.031-.123-.683-1.351-1.116-1.677.169-.14.341-.277.518-.41 4.896-3.685 11.567-3.369 16.082.393zm-12.2 20.322a10.96 10.96 0 0 0 7.381-12.399c.369-.001 1.671-.489 1.905-.679.994 4.764-.749 9.893-4.89 13.011a12.923 12.923 0 0 1-4.023 2.046 3.045 3.045 0 0 1-5.44 1.375 3.045 3.045 0 0 1 .602-4.262 3.045 3.045 0 0 1 4.465.908zM4.841 10.977a3.044 3.044 0 1 1 4.038-4.416 3.045 3.045 0 0 1-2.073 4.853 10.914 10.914 0 0 0 2.153 7.603 10.928 10.928 0 0 0 3.348 2.943 3.05 3.05 0 0 0-.387 2.059 12.903 12.903 0 0 1-4.559-3.799 12.91 12.91 0 0 1-2.52-9.243z" fill="#fff"/></svg>