<svg clip-rule="evenodd" fill-rule="evenodd" viewBox="0 0 290 232" xmlns="http://www.w3.org/2000/svg" xmlns:xlink="http://www.w3.org/1999/xlink"><clipPath id="a"><path clip-rule="evenodd" d="m0 0h290v232h-290z"/></clipPath><path d="m0 0h290v232h-290z" fill="none"/><g clip-path="url(#a)"><path d="m290 192.318c0 19.177-6.767 31.308-21.134 38.413-1.728.858-3.576 1.269-5.425 1.269-2.924 0-5.824-1.051-8.12-3.081l-37.567-33.169c-6.743-5.969-12.615-12.132-29.049-12.132h-87.398c-16.434 0-22.318 6.163-29.049 12.132l-37.579 33.169c-2.271 2.03-5.184 3.081-8.12 3.081-1.836 0-3.709-.411-5.425-1.269-14.367-7.105-21.134-19.236-21.134-38.401 0-24.915 11.419-65.987 32.395-119.105 9.933-25.17 27.695-34.558 44.648-34.558 7.927 0 15.685 2.054 22.391 5.51 29.29 15.092 62.471 14.778 91.156 0 6.683-3.456 14.44-5.51 22.367-5.51 16.953 0 34.727 9.388 44.66 34.558 20.964 53.106 32.383 94.177 32.383 119.093z" fill-rule="nonzero"/><circle cx="212.35" cy="129.123" fill="#00ff04" fill-opacity=".5" r="10.427"/><circle cx="211.592" cy="128.365" fill="#00ff04" r="9.669" stroke="#000" stroke-width="1.52"/><path d="m208.369 125.142 6.825 6.825" fill="none" stroke="#000" stroke-linecap="round" stroke-linejoin="round" stroke-width="1.52"/><path d="m208.369 131.967 6.825-6.825" fill="none" stroke="#000" stroke-linecap="round" stroke-linejoin="round" stroke-width="1.52"/><circle cx="233.204" cy="108.269" fill="#ff0009" fill-opacity=".5" r="10.427"/><circle cx="232.446" cy="107.511" fill="#ff0009" r="9.669" stroke="#000" stroke-width="1.52"/><circle cx="232.446" cy="107.511" fill="none" r="3.981" stroke="#000" stroke-width="1.52"/><circle cx="191.496" cy="108.269" fill="#48c0fb" fill-opacity=".5" r="10.427"/><circle cx="190.737" cy="107.511" fill="#48c0fb" r="9.669" stroke="#000" stroke-width="1.52"/><path d="m194.34 107.701c0-1.884-1.53-3.413-3.413-3.413s-3.412 1.529-3.412 3.413c0 1.883 1.529 3.412 3.412 3.412s3.413-1.529 3.413-3.412z" fill="none" stroke="#000" stroke-width="1.52"/><circle cx="212.35" cy="87.415" fill="#fff000" fill-opacity=".5" r="10.427"/><circle cx="211.592" cy="86.657" fill="#fff000" r="9.669" stroke="#000" stroke-width="1.52"/><path d="m207.61 90.192 4.094-8.275 4.093 8.275z" fill="none" stroke="#000" stroke-linejoin="round" stroke-width="1.52"/><path d="m54.741 33.571h37.839c1.521 0 2.772-.597 2.772-1.323 0-.098-.023-.196-.069-.292l-10.897-22.924c-.713-1.501-3.534-2.575-6.76-2.575h-11.794c-7.657 0-13.864 2.961-13.864 6.613v19.178c0 .726 1.252 1.323 2.773 1.323z" fill-opacity=".5"/><path d="m52.285 31.215c-.383 0-.73-.074-.981-.194-.251-.119-.405-.285-.405-.467v-19.179c0-1.643 1.396-3.131 3.654-4.208 2.337-1.118 5.514-1.746 8.823-1.743h11.794c1.257-.001 2.478.203 3.461.578.983.374 1.67.897 1.948 1.482l10.897 22.924c.034.328-.121.494-.372.613-.26.125-.613.194-.98.194z" fill="#fff" stroke="#000" stroke-width="2.17"/><path d="m103.029 37.952h-47.645c-3.17 0-5.74 2.57-5.74 5.74v6.889c0 1.259 1.037 2.296 2.296 2.296h54.534c1.259 0 2.296-1.037 2.296-2.296v-6.889c0-3.17-2.57-5.74-5.741-5.74z" fill-opacity=".5"/><path d="m101.235 38.306c1.269 0 2.417.514 3.248 1.345.862.86 1.346 2.029 1.344 3.247v6.889c0 .316-.128.603-.336.811-.215.216-.507.337-.812.337h-54.533c-.304 0-.597-.121-.812-.337-.215-.215-.336-.507-.336-.811v-6.889c0-1.268.514-2.417 1.345-3.247.86-.862 2.029-1.347 3.247-1.345z" fill="#fff" stroke="#000" stroke-width="2.3"/><path d="m242.655 38.056h-52.635c-1.521 0-2.773-.661-2.773-1.466 0-.114.026-.229.076-.34l15.139-33.498c.743-1.645 3.547-2.814 6.744-2.814h22.358c7.656 0 13.864 3.282 13.864 7.331v29.321c0 .805-1.252 1.466-2.773 1.466z" fill="#419bf3"/><path d="m237.004 33.571h-37.838c-1.521 0-2.773-.597-2.773-1.323 0-.098.023-.196.069-.292l10.896-22.924c.714-1.501 3.535-2.576 6.762-2.575h11.793c7.657 0 13.863 2.961 13.863 6.613v19.178c0 .726-1.251 1.323-2.772 1.323z" fill-opacity=".5"/><path d="m197.71 31.215c-.368 0-.721-.069-.981-.194-.25-.119-.406-.285-.406-.467l10.932-23.07c.277-.585.965-1.108 1.948-1.482.982-.375 2.202-.579 3.46-.578h11.794c3.445 0 6.564.666 8.822 1.743 2.343 1.114 3.659 2.63 3.655 4.208v19.179c0 .182-.155.348-.406.467-.26.125-.613.194-.98.194z" fill="#fff" stroke="#000" stroke-width="2.17"/><path d="m188.971 37.51h47.645c3.17 0 5.74 2.57 5.74 5.74v6.889c0 1.26-1.037 2.296-2.296 2.296h-54.534c-1.259 0-2.296-1.036-2.296-2.296v-6.889c0-3.17 2.57-5.74 5.741-5.74z" fill-opacity=".5"/><path d="m234.821 37.864c1.269 0 2.417.514 3.248 1.345.862.86 1.346 2.029 1.345 3.247v6.889c0 .317-.129.604-.337.811-.215.216-.507.337-.811.337h-54.534c-.304 0-.597-.121-.812-.337-.215-.215-.336-.507-.336-.811v-6.889c0-1.268.514-2.416 1.345-3.247.86-.862 2.03-1.347 3.247-1.345z" fill="#fff" stroke="#000" stroke-width="2.3"/><path d="m170.335 126.343c0-1.959-1.59-3.549-3.549-3.549h-6.76c-1.958 0-3.549 1.59-3.549 3.549 0 1.958 1.591 3.548 3.549 3.548h6.76c1.959 0 3.549-1.59 3.549-3.548z" fill="#bbb" fill-opacity=".5"/><path d="m168.983 125.667c0-1.586-1.287-2.873-2.873-2.873h-6.76c-1.585 0-2.873 1.287-2.873 2.873 0 1.585 1.288 2.873 2.873 2.873h6.76c1.586 0 2.873-1.288 2.873-2.873z" fill="#fff" stroke="#000" stroke-width="1.35"/><path d="m135.523 126.343c0-1.959-1.591-3.549-3.549-3.549h-6.76c-1.959 0-3.549 1.59-3.549 3.549 0 1.958 1.59 3.548 3.549 3.548h6.76c1.958 0 3.549-1.59 3.549-3.548z" fill="#bbb" fill-opacity=".5"/><path d="m134.171 125.667c0-1.586-1.288-2.873-2.873-2.873h-6.76c-1.585 0-2.873 1.287-2.873 2.873 0 1.585 1.288 2.873 2.873 2.873h6.76c1.585 0 2.873-1.288 2.873-2.873z" fill="#fff" stroke="#000" stroke-width="1.35"/><circle cx="97.039" cy="175.082" fill-opacity=".5" r="26.458"/><circle cx="95.794" cy="173.837" fill="#fff" r="25.213" stroke="#000" stroke-width="2.49"/><circle cx="97.662" cy="175.705" fill-opacity=".5" r="17.12"/><circle cx="95.794" cy="173.837" fill="#fff" r="15.875" stroke="#000" stroke-width="2.49"/><circle cx="95.794" cy="173.837" fill="#fff" r="12.14" stroke="#000" stroke-width="1.25"/><circle cx="192.961" cy="176.327" fill-opacity=".5" r="26.458"/><circle cx="191.715" cy="175.082" fill="#fff" r="25.213" stroke="#000" stroke-width="2.49"/><circle cx="193.583" cy="176.95" fill-opacity=".5" r="17.12"/><circle cx="191.715" cy="175.082" fill="#fff" r="15.875" stroke="#000" stroke-width="2.49"/><circle cx="191.715" cy="175.082" fill="#fff" r="12.14" stroke="#000" stroke-width="1.25"/><path d="m86.504 80.237c.876 0 1.597.721 1.597 1.597v17.563h17.563c.876 0 1.596.72 1.596 1.596v14.37c0 .876-.72 1.596-1.596 1.596h-17.563v17.563c0 .876-.721 1.597-1.597 1.597h-14.369c-.876 0-1.597-.721-1.597-1.597v-17.563h-17.562c-.876 0-1.597-.72-1.597-1.596v-14.37c0-.876.721-1.596 1.597-1.596l17.562-.001v-17.562c0-.876.721-1.597 1.597-1.597z" fill="#9a9a9a" fill-opacity=".5"/><g stroke="#000"><path d="m84.908 78.641c.876 0 1.596.72 1.596 1.596v17.563h17.563c.876 0 1.597.721 1.597 1.597v14.369c0 .876-.721 1.597-1.597 1.597h-17.563v17.562c0 .876-.72 1.597-1.596 1.597h-14.37c-.876 0-1.596-.721-1.596-1.597v-17.563l-17.563.001c-.876 0-1.597-.721-1.597-1.597v-14.369c0-.876.721-1.597 1.597-1.597h17.563v-17.563c0-.876.72-1.596 1.596-1.596z" fill="#fff" stroke-linejoin="round" stroke-width="1.6"/><path d="m91.693 102.191 8.782 4.39-8.782 4.391z" fill="none" stroke-linejoin="round" stroke-width="1.6"/><path d="m63.753 110.972-8.782-4.391 8.782-4.39z" fill="none" stroke-linejoin="round" stroke-width="1.6"/><path d="m82.114 120.552-4.391 8.781-4.391-8.781z" fill="none" stroke-linejoin="round" stroke-width="1.6"/><path d="m73.332 92.611 4.391-8.781 4.391 8.781z" fill="none" stroke-linejoin="round" stroke-width="1.6"/></g><circle cx="145.713" cy="86.713" fill="#999" fill-opacity=".5" r="12.832"/><circle cx="145" cy="86" fill="#fff" r="12.119" stroke="#000" stroke-width="1.43"/><path d="m145.904 88.772c0-.411.037-.759.111-1.044s.18-.533.317-.744c.135-.21.296-.402.479-.573.182-.171.382-.348.599-.531.183-.161.366-.323.547-.487.185-.168.348-.358.488-.565.142-.211.256-.462.342-.753.085-.291.128-.636.128-1.035 0-.547-.097-1.038-.291-1.471-.194-.434-.459-.796-.795-1.087-.337-.29-.73-.513-1.181-.667-.45-.154-.938-.231-1.463-.231-.627 0-1.194.1-1.702.3-.508.199-.941.481-1.3.846-.36.365-.633.805-.821 1.318-.189.513-.283 1.083-.283 1.711h1.951c0-.776.168-1.395.504-1.857.337-.462.859-.692 1.566-.692.148 0 .319.034.513.102.201.073.387.183.548.325.171.149.316.345.436.59.12.246.179.539.179.882 0 .285-.037.53-.111.735-.071.201-.175.389-.308.556-.132.167-.281.319-.445.454-.165.137-.339.285-.521.445-.214.179-.411.376-.591.59-.171.21-.312.443-.419.693-.114.262-.197.567-.248.915s-.077.773-.077 1.275zm.188 3.319v-2.139h-2.292v2.139z" fill="#222" fill-rule="nonzero"/></g></svg>