<svg version="1" xmlns="http://www.w3.org/2000/svg" width="800" height="800" viewBox="0 0 600.000000 600.000000"><path d="M393.7 19.5c-13.7 5.2-22.2 18.4-21.2 32.6.6 7.6 3.2 13.5 8.4 19.2 3.1 3.3 4.1 5.3 4.1 7.7 0 7.7-15 39.6-34.9 74.5l-4.6 8-15-.2c-8.3-.1-17.2.2-20 .8-2.7.5-6.3 1.2-7.8 1.4-7.1 1-23.7 7.6-33.2 13.3-26 15.5-43.8 36.1-65 75.2-9.2 17-32.7 65.2-40 82-10.2 23.4-10.4 24-14.1 31.8-1.9 3.9-3.4 7.4-3.4 7.7 0 1.1-17.8 36.2-20.4 40.3-1.4 2.3-2.6 4.4-2.6 4.8 0 3-46 74.6-71.9 111.9-2.2 3.3-4.7 6.8-5.4 7.9-.6 1-1.9 2.8-2.8 4-7.2 9.6-8.9 13-8.9 17.3 0 12.3 13.8 17.2 23.2 8.3 3.3-3.1 55.6-45.6 65.8-53.4 52.5-40.4 75.6-56.4 111.4-77.3 6-3.4 11-6.3 11.2-6.3.2 0 2.5-1.3 5.1-2.8 2.6-1.6 8.8-5 13.8-7.7 107.8-58.1 139.1-83.4 153.4-124 4.2-11.8 6.2-22.7 6.4-34.5l.2-10.1 23-7.5c22.6-7.4 39.7-12.2 46.4-13 1.9-.3 5-.8 7-1.2 6-1.2 8.9-.4 10.7 3 3.2 6.3 11.9 12.8 18.9 14.2 6.9 1.4 8.6 1.4 14.2.2 25-5.1 34.3-34.9 16.6-53.3-9.5-9.8-24.9-12.2-37.1-5.8-6 3.2-8.4 5.2-12 10.5-2.9 4.2-3.1 4.4-8.8 4.7-4.7.2-23.7 3.7-31.4 5.8-6.5 1.7-26.9 8.1-37.9 11.9-7.4 2.5-13.7 4.3-14.1 4.1-.4-.3-1.3-1.9-2-3.7-7.6-19.9-22.7-37.2-42.5-48.3-2.7-1.6-5.2-3-5.4-3.1-.1-.2 3.7-7.6 8.7-16.6 9.6-17.5 17.2-32.3 22-42.9 3.4-7.5 9.2-25 9.2-27.7 0-1.3 1.7-2.5 5.5-4.1 19.6-8.1 25.6-34.3 11.6-50.3-6.1-6.9-12.7-10-22.5-10.4-5.4-.2-9.4.2-11.9 1.1zm17.8 18.9c10.9 7.1 6.1 24.3-6.8 24.8-10.4.4-17.1-10.1-12.4-19.3 3.8-7.4 12.5-9.9 19.2-5.5zm134.2 166.3c9.4 4.4 9.7 19 .4 23.8-9.9 5.1-21.3-3-19.6-13.9 1.4-9.4 10.5-14.1 19.2-9.9z"/></svg>