<?xml version="1.0" encoding="UTF-8" standalone="no"?>
<!DOCTYPE svg PUBLIC "-//W3C//DTD SVG 1.1//EN" "http://www.w3.org/Graphics/SVG/1.1/DTD/svg11.dtd">
<svg width="100%" height="100%" viewBox="0 0 290 232" version="1.1" xmlns="http://www.w3.org/2000/svg" xmlns:xlink="http://www.w3.org/1999/xlink" xml:space="preserve" xmlns:serif="http://www.serif.com/" style="fill-rule:evenodd;clip-rule:evenodd;">
    <path d="M290,192.32C290,211.5 283.23,223.62 268.87,230.73C264.417,232.928 259.049,232.211 255.33,228.92L217.75,195.75C211.01,189.78 205.14,183.62 188.71,183.62L101.31,183.62C84.87,183.62 78.99,189.78 72.26,195.75L34.68,228.92C30.968,232.233 25.582,232.952 21.13,230.73C6.77,223.63 0,211.5 0,192.33C0,167.41 11.42,126.34 32.4,73.23C42.33,48.05 60.09,38.67 77.04,38.67C84.97,38.67 92.73,40.72 99.44,44.17C128.72,59.27 161.91,58.95 190.59,44.17C197.505,40.589 205.173,38.703 212.96,38.67C229.91,38.67 247.68,48.05 257.62,73.22C278.58,126.33 290,167.4 290,192.32Z" style="fill-rule:nonzero;"/>
    <g id="buttons">
        <g id="button_1">
            <g id="Group">
                <circle id="shadow" cx="212.35" cy="129.12" r="10.43" style="fill:rgb(0,255,4);fill-opacity:0.5;"/>
                <circle id="Oval" cx="211.59" cy="128.37" r="9.67" style="fill:rgb(0,255,4);stroke:black;stroke-width:1.52px;"/>
            </g>
            <path id="Line" d="M208.37,125.14L215.19,131.97" style="fill:none;stroke:black;stroke-width:1.52px;stroke-linecap:round;stroke-linejoin:round;"/>
            <path id="Line-Copy" d="M208.37,131.97L215.19,125.14" style="fill:none;stroke:black;stroke-width:1.52px;stroke-linecap:round;stroke-linejoin:round;"/>
        </g>
        <g id="button_2">
            <g id="Group1">
                <circle id="shadow1" cx="233.2" cy="108.27" r="10.43" style="fill:rgb(255,0,9);fill-opacity:0.5;"/>
                <circle id="Oval1" cx="232.45" cy="107.51" r="9.67" style="fill:rgb(255,0,9);stroke:black;stroke-width:1.52px;"/>
            </g>
            <circle id="Oval2" cx="232.45" cy="107.51" r="3.98" style="fill:none;stroke:black;stroke-width:1.52px;"/>
        </g>
        <g id="button_3">
            <g id="Group2">
                <circle id="shadow2" cx="191.5" cy="108.27" r="10.43" style="fill:rgb(72,192,251);fill-opacity:0.5;"/>
                <circle id="Oval3" cx="190.74" cy="107.51" r="9.67" style="fill:rgb(72,192,251);stroke:black;stroke-width:1.52px;"/>
            </g>
            <path id="Rectangle" d="M194.34,107.7C194.34,105.827 192.798,104.285 190.925,104.285C189.052,104.285 187.51,105.827 187.51,107.7C187.51,109.573 189.052,111.115 190.925,111.115C192.798,111.115 194.34,109.573 194.34,107.7Z" style="fill:none;stroke:black;stroke-width:1.52px;"/>
        </g>
        <g id="button_4">
            <g id="Group3">
                <circle id="shadow3" cx="212.35" cy="87.42" r="10.43" style="fill:rgb(255,240,0);fill-opacity:0.5;"/>
                <circle id="Oval4" cx="211.59" cy="86.66" r="9.67" style="fill:rgb(255,240,0);stroke:black;stroke-width:1.52px;"/>
            </g>
            <path id="Path" d="M207.61,90.2L211.71,81.92L215.8,90.19L207.61,90.19L207.61,90.2Z" style="fill:none;stroke:black;stroke-width:1.52px;stroke-linejoin:round;"/>
        </g>
    </g>
    <g id="shoulder_buttons">
        <path id="shadow4" d="M54.74,33.57L92.58,33.57C94.1,33.57 95.35,32.97 95.35,32.25C95.35,32.15 95.33,32.05 95.28,31.95L84.38,9.04C83.68,7.54 80.85,6.47 77.63,6.47L65.83,6.47C58.17,6.47 51.97,9.43 51.97,13.08L51.97,32.26C51.97,32.98 53.22,33.58 54.74,33.58L54.74,33.57Z" style="fill-opacity:0.5;"/>
        <path id="shoulder_bottom_left" d="M52.28,31.21C51.9,31.21 51.55,31.14 51.3,31.02C51.05,30.9 50.9,30.74 50.9,30.55L50.9,11.37C50.9,9.73 52.3,8.24 54.55,7.17C57.333,5.958 60.345,5.361 63.38,5.42L75.17,5.42C76.43,5.42 77.65,5.62 78.63,6C79.61,6.38 80.3,6.9 80.58,7.48L91.48,30.41C91.51,30.74 91.35,30.91 91.1,31.02C90.84,31.15 90.5,31.22 90.12,31.22L52.28,31.22L52.28,31.21Z" style="fill:white;stroke:black;stroke-width:2.17px;"/>
        <path id="shadow5" d="M103.03,37.95L55.38,37.95C52.231,37.95 49.64,40.541 49.64,43.69L49.64,50.59C49.645,51.848 50.682,52.88 51.94,52.88L106.47,52.88C107.732,52.88 108.77,51.842 108.77,50.58L108.77,43.7C108.77,40.551 106.179,37.96 103.03,37.96L103.03,37.95Z" style="fill-opacity:0.5;"/>
        <path id="shoulder_top_left" d="M101.23,38.3C101.237,38.3 101.243,38.3 101.25,38.3C103.763,38.3 105.83,40.367 105.83,42.88C105.83,42.887 105.83,42.893 105.83,42.9L105.83,49.79C105.83,49.793 105.83,49.797 105.83,49.8C105.83,50.425 105.315,50.94 104.69,50.94C104.687,50.94 104.683,50.94 104.68,50.94L50.15,50.94C49.519,50.94 49,50.421 49,49.79L49,42.89C49,40.377 51.067,38.31 53.58,38.31C53.583,38.31 53.587,38.31 53.59,38.31L101.23,38.31L101.23,38.3Z" style="fill:white;stroke:black;stroke-width:2.3px;"/>
        <path id="shadow6" d="M237,33.57L199.17,33.57C197.65,33.57 196.39,32.97 196.39,32.25C196.39,32.15 196.42,32.05 196.46,31.95L207.36,9.03C208.07,7.53 210.89,6.46 214.12,6.46L225.92,6.46C233.57,6.46 239.78,9.42 239.78,13.07L239.78,32.25C239.78,32.97 238.53,33.57 237,33.57Z" style="fill-opacity:0.5;"/>
        <path id="shoulder_bottom_right" d="M197.71,31.21C197.34,31.21 196.99,31.15 196.73,31.02C196.48,30.9 196.33,30.74 196.33,30.55L207.25,7.48C207.53,6.9 208.22,6.38 209.2,6C210.19,5.63 211.4,5.42 212.66,5.42L224.46,5.42C227.9,5.42 231.02,6.09 233.28,7.17C235.62,8.28 236.94,9.8 236.93,11.37L236.93,30.55C236.93,30.74 236.78,30.9 236.53,31.02C236.27,31.15 235.91,31.22 235.55,31.22L197.7,31.22L197.71,31.21Z" style="fill:white;stroke:black;stroke-width:2.17px;"/>
        <path id="shadow7" d="M188.97,37.51L236.62,37.51C239.769,37.51 242.36,40.101 242.36,43.25L242.36,50.14C242.36,51.402 241.322,52.44 240.06,52.44L185.53,52.44C184.268,52.44 183.23,51.402 183.23,50.14L183.23,43.25C183.23,40.101 185.821,37.51 188.97,37.51Z" style="fill-opacity:0.5;"/>
        <path id="shoulder_top_right" d="M234.82,37.86C234.827,37.86 234.833,37.86 234.84,37.86C237.353,37.86 239.42,39.927 239.42,42.44C239.42,42.447 239.42,42.453 239.42,42.46L239.42,49.34C239.42,49.343 239.42,49.347 239.42,49.35C239.42,49.975 238.905,50.49 238.28,50.49C238.277,50.49 238.273,50.49 238.27,50.49L183.73,50.49C183.099,50.49 182.58,49.971 182.58,49.34L182.58,42.46C182.58,42.453 182.58,42.447 182.58,42.44C182.58,39.927 184.647,37.86 187.16,37.86C187.167,37.86 187.173,37.86 187.18,37.86L234.82,37.86Z" style="fill:white;stroke:black;stroke-width:2.3px;"/>
    </g>
    <g id="select_start_buttons">
        <path id="shadow8" d="M170.34,126.34C170.34,124.393 168.737,122.79 166.79,122.79L160.03,122.79C158.083,122.79 156.48,124.393 156.48,126.34C156.48,128.287 158.083,129.89 160.03,129.89L166.79,129.89C168.737,129.89 170.34,128.287 170.34,126.34Z" style="fill:rgb(187,187,187);fill-opacity:0.5;"/>
        <path id="start" d="M168.98,125.67C168.98,125.667 168.98,125.663 168.98,125.66C168.98,124.086 167.684,122.79 166.11,122.79L159.35,122.79C157.773,122.79 156.475,124.088 156.475,125.665C156.475,127.242 157.773,128.54 159.35,128.54L166.11,128.54C167.684,128.54 168.98,127.244 168.98,125.67Z" style="fill:white;stroke:black;stroke-width:1.35px;"/>
        <path id="shadow9" d="M135.52,126.34C135.52,124.38 133.93,122.79 131.97,122.79L125.21,122.79C123.263,122.79 121.66,124.393 121.66,126.34C121.66,128.287 123.263,129.89 125.21,129.89L131.97,129.89C133.917,129.89 135.52,128.287 135.52,126.34Z" style="fill:rgb(187,187,187);fill-opacity:0.5;"/>
        <path id="select" d="M134.17,125.67C134.17,125.667 134.17,125.663 134.17,125.66C134.17,124.086 132.874,122.79 131.3,122.79L124.54,122.79C122.963,122.79 121.665,124.088 121.665,125.665C121.665,127.242 122.963,128.54 124.54,128.54L131.3,128.54C132.872,128.535 134.165,127.242 134.17,125.67Z" style="fill:white;stroke:black;stroke-width:1.35px;"/>
    </g>
    <g id="stick_buttons">
        <g id="stick_button_left">
            <g id="stick_bg_left">
                <circle id="shadow10" cx="97.04" cy="175.08" r="26.46" style="fill-opacity:0.5;"/>
                <circle id="Oval5" cx="95.79" cy="173.84" r="25.21" style="fill:white;stroke:black;stroke-width:2.49px;"/>
            </g>
            <g id="stick_left">
                <circle id="shadow11" cx="97.66" cy="175.71" r="17.12" style="fill-opacity:0.5;"/>
                <g id="Group-6">
                    <circle id="Oval-Copy" cx="95.79" cy="173.84" r="15.88" style="fill:white;stroke:black;stroke-width:2.49px;"/>
                    <circle id="Oval-Copy-2" cx="95.79" cy="173.84" r="12.14" style="fill:white;stroke:black;stroke-width:1.25px;"/>
                </g>
            </g>
        </g>
        <g id="stick_button_right">
            <g id="stick_bg_right">
                <circle id="shadow12" cx="192.96" cy="176.33" r="26.46" style="fill-opacity:0.5;"/>
                <circle id="Oval6" cx="191.72" cy="175.08" r="25.21" style="fill:white;stroke:black;stroke-width:2.49px;"/>
            </g>
            <g id="stick_right">
                <circle id="shadow13" cx="193.58" cy="176.95" r="17.12" style="fill-opacity:0.5;"/>
                <g id="Group-61">
                    <circle id="Oval-Copy1" cx="191.72" cy="175.08" r="15.88" style="fill:white;stroke:black;stroke-width:2.49px;"/>
                    <circle id="Oval-Copy-21" cx="191.72" cy="175.08" r="12.14" style="fill:white;stroke:black;stroke-width:1.25px;"/>
                </g>
            </g>
        </g>
    </g>
    <g id="d_pad">
        <path id="shadow14" d="M86.5,80.24C87.38,80.24 88.1,80.96 88.1,81.84L88.1,99.4L105.66,99.4C106.54,99.4 107.26,100.12 107.26,101L107.26,115.36C107.26,116.24 106.54,116.96 105.66,116.96L88.1,116.96L88.1,134.52C88.1,135.4 87.38,136.12 86.5,136.12L72.14,136.12C71.262,136.12 70.54,135.398 70.54,134.52L70.54,116.96L52.98,116.96C52.102,116.96 51.38,116.238 51.38,115.36L51.38,101C51.38,100.13 52.1,99.4 52.98,99.4L70.54,99.4L70.54,81.84C70.54,80.97 71.26,80.24 72.14,80.24L86.5,80.24Z" style="fill:rgb(154,154,154);fill-opacity:0.5;"/>
        <path d="M84.9,78.64C85.78,78.64 86.5,79.36 86.5,80.24L86.5,97.8L104.07,97.8C104.94,97.8 105.67,98.52 105.67,99.4L105.67,113.77C105.67,114.64 104.94,115.37 104.07,115.37L86.5,115.37L86.5,132.93C86.5,133.8 85.78,134.53 84.9,134.53L70.55,134.53C69.672,134.53 68.95,133.808 68.95,132.93L68.95,115.36L51.38,115.36C50.502,115.36 49.78,114.638 49.78,113.76L49.78,99.4C49.78,98.52 50.5,97.8 51.38,97.8L68.94,97.8L68.94,80.24C68.94,79.36 69.66,78.64 70.54,78.64L84.9,78.64Z" style="fill:white;stroke:black;stroke-width:1.6px;stroke-linejoin:round;"/>
        <path id="d_pad_right" d="M91.7,102.2L100.47,106.58L91.69,110.98L91.69,102.19L91.7,102.2Z" style="fill:none;stroke:black;stroke-width:1.6px;stroke-linejoin:round;"/>
        <path id="d_pad_up_left" d="M63.75,110.97L54.97,106.58L63.75,102.19L63.75,110.97Z" style="fill:none;stroke:black;stroke-width:1.6px;stroke-linejoin:round;"/>
        <path id="d_pad_down" d="M82.11,120.55L77.72,129.33L73.33,120.55L82.11,120.55Z" style="fill:none;stroke:black;stroke-width:1.6px;stroke-linejoin:round;"/>
        <path id="d_pad_up" d="M73.33,92.61L77.73,83.83L82.11,92.61L73.33,92.61Z" style="fill:none;stroke:black;stroke-width:1.6px;stroke-linejoin:round;"/>
    </g>
    <g id="vendor">
        <circle id="shadow15" cx="145.71" cy="86.71" r="12.83" style="fill:rgb(153,153,153);fill-opacity:0.5;"/>
        <circle id="Oval7" cx="145" cy="86" r="12.12" style="fill:white;stroke:black;stroke-width:1.43px;"/>
        <path id="_-" d="M145.9,88.77C145.9,88.37 145.94,88.01 146.01,87.73C146.132,87.217 146.412,86.755 146.81,86.41C147.199,86.076 147.582,85.736 147.96,85.39C148.36,85.04 148.648,84.582 148.79,84.07C148.87,83.78 148.92,83.44 148.92,83.04C148.92,82.49 148.82,82 148.62,81.57C148.43,81.14 148.16,80.77 147.82,80.48C147.476,80.184 147.079,79.957 146.65,79.81C146.176,79.652 145.679,79.575 145.18,79.58C144.56,79.58 143.99,79.68 143.48,79.88C142.495,80.265 141.722,81.056 141.36,82.05C141.167,82.596 141.073,83.171 141.08,83.75L143.03,83.75C143.03,82.98 143.2,82.36 143.53,81.9C143.87,81.44 144.39,81.21 145.1,81.21C145.753,81.235 146.337,81.632 146.6,82.23C146.726,82.506 146.787,82.807 146.78,83.11C146.78,83.39 146.74,83.64 146.66,83.84C146.59,84.04 146.49,84.24 146.36,84.4C146.22,84.57 146.08,84.72 145.91,84.85L145.39,85.3C145.18,85.48 144.98,85.68 144.8,85.89C144.63,86.09 144.49,86.33 144.38,86.59C144.27,86.84 144.18,87.15 144.13,87.49C144.08,87.85 144.06,88.27 144.06,88.77L145.9,88.77ZM146.1,92.09L146.1,89.95L143.8,89.95L143.8,92.09L146.1,92.09Z" style="fill:rgb(34,34,34);fill-rule:nonzero;"/>
    </g>
</svg>
