<?xml version="1.0" encoding="UTF-8" standalone="no"?>
<!DOCTYPE svg PUBLIC "-//W3C//DTD SVG 1.1//EN" "http://www.w3.org/Graphics/SVG/1.1/DTD/svg11.dtd">
<svg width="100%" height="100%" viewBox="0 0 290 232" version="1.1" xmlns="http://www.w3.org/2000/svg" xmlns:xlink="http://www.w3.org/1999/xlink" xml:space="preserve" xmlns:serif="http://www.serif.com/" style="fill-rule:evenodd;clip-rule:evenodd;">
    <g id="right_side_of_controller">
        <path d="M145,55.368c15.622,0.006 31.175,-3.77 45.59,-11.198c6.915,-3.581 14.583,-5.467 22.37,-5.5c16.95,0 34.72,9.38 44.66,34.55c20.96,53.11 32.38,94.18 32.38,119.1c0,19.18 -6.77,31.3 -21.13,38.41c-4.453,2.198 -9.821,1.481 -13.54,-1.81l-37.58,-33.17c-6.74,-5.97 -12.61,-12.13 -29.04,-12.13l-43.71,0l0,-128.252Z"/>
        <g id="stick_button_right" transform="matrix(1,0,0,1,16.08,0)">
            <g id="stick_bg_right">
                <circle id="shadow12" cx="192.96" cy="176.33" r="26.46" style="fill-opacity:0.5;"/>
                <circle id="Oval6" cx="191.72" cy="175.08" r="25.21" style="fill:#fff;stroke:#000;stroke-width:2.49px;"/>
            </g>
            <g id="stick_right">
                <circle id="shadow13" cx="193.58" cy="176.95" r="17.12" style="fill-opacity:0.5;"/>
                <g id="Group-61">
                    <circle id="Oval-Copy1" cx="191.72" cy="175.08" r="15.88" style="fill:#fff;stroke:#000;stroke-width:2.49px;"/>
                    <circle id="Oval-Copy-21" cx="191.72" cy="175.08" r="12.14" style="fill:#fff;stroke:#000;stroke-width:1.25px;"/>
                </g>
            </g>
        </g>
        <g id="start_button" transform="matrix(1,0,0,1,28.0925,12.5493)">
            <path id="shadow8" d="M170.34,126.34c0,-1.947 -1.603,-3.55 -3.55,-3.55l-6.76,0c-1.947,0 -3.55,1.603 -3.55,3.55c0,1.947 1.603,3.55 3.55,3.55l6.76,0c1.947,0 3.55,-1.603 3.55,-3.55Z" style="fill:#bbb;fill-opacity:0.5;"/>
            <path id="start" d="M168.98,125.67c0,-0.003 0,-0.007 0,-0.01c0,-1.574 -1.296,-2.87 -2.87,-2.87l-6.76,0c-1.577,0 -2.875,1.298 -2.875,2.875c0,1.577 1.298,2.875 2.875,2.875l6.76,0c1.574,0 2.87,-1.296 2.87,-2.87Z" style="fill:#fff;stroke:#000;stroke-width:1.35px;"/>
        </g>
        <g id="button_1" transform="matrix(1,0,0,1,0,-7.35)">
            <g id="Group">
                <circle id="shadow" cx="212.35" cy="129.12" r="10.43" style="fill:#00ff04;fill-opacity:0.5;"/>
                <circle id="Oval" cx="211.59" cy="128.37" r="9.67" style="fill:#00ff04;stroke:#000;stroke-width:1.52px;"/>
            </g>
            <path id="Line" d="M208.37,125.14l6.82,6.83" style="fill:none;stroke:#000;stroke-width:1.52px;stroke-linecap:round;stroke-linejoin:round;"/>
            <path id="Line-Copy" d="M208.37,131.97l6.82,-6.83" style="fill:none;stroke:#000;stroke-width:1.52px;stroke-linecap:round;stroke-linejoin:round;"/>
        </g>
        <g id="button_2" transform="matrix(1,0,0,1,0,-7.35)">
            <g id="Group1">
                <circle id="shadow1" cx="233.2" cy="108.27" r="10.43" style="fill:#ff0009;fill-opacity:0.5;"/>
                <circle id="Oval1" cx="232.45" cy="107.51" r="9.67" style="fill:#ff0009;stroke:#000;stroke-width:1.52px;"/>
            </g>
            <circle id="Oval2" cx="232.45" cy="107.51" r="3.98" style="fill:none;stroke:#000;stroke-width:1.52px;"/>
        </g>
        <g id="button_3" transform="matrix(1,0,0,1,0,-7.35)">
            <g id="Group2">
                <circle id="shadow2" cx="191.5" cy="108.27" r="10.43" style="fill:#48c0fb;fill-opacity:0.5;"/>
                <circle id="Oval3" cx="190.74" cy="107.51" r="9.67" style="fill:#48c0fb;stroke:#000;stroke-width:1.52px;"/>
            </g>
            <path id="Rectangle" d="M194.34,107.7c0,-1.873 -1.542,-3.415 -3.415,-3.415c-1.873,0 -3.415,1.542 -3.415,3.415c-0,1.873 1.542,3.415 3.415,3.415c1.873,0 3.415,-1.542 3.415,-3.415Z" style="fill:none;stroke:#000;stroke-width:1.52px;"/>
        </g>
        <g id="button_4" transform="matrix(1,0,0,1,0,-7.35)">
            <g id="Group3">
                <circle id="shadow3" cx="212.35" cy="87.42" r="10.43" style="fill:#fff000;fill-opacity:0.5;"/>
                <circle id="Oval4" cx="211.59" cy="86.66" r="9.67" style="fill:#fff000;stroke:#000;stroke-width:1.52px;"/>
            </g>
            <path id="Path" d="M207.61,90.2l4.1,-8.28l4.09,8.27l-8.19,0l0,0.01Z" style="fill:none;stroke:#000;stroke-width:1.52px;stroke-linejoin:round;"/>
        </g>
        <g id="shoulder_trigger_right_back">
            <path id="shadow6" d="M237,33.57l-37.83,0c-1.52,0 -2.78,-0.6 -2.78,-1.32c0,-0.1 0.03,-0.2 0.07,-0.3l10.9,-22.92c0.71,-1.5 3.53,-2.57 6.76,-2.57l11.8,0c7.65,0 13.86,2.96 13.86,6.61l0,19.18c0,0.72 -1.25,1.32 -2.78,1.32Z" style="fill-opacity:0.5;"/>
            <path id="shoulder_bottom_right" d="M197.71,31.21c-0.37,0 -0.72,-0.06 -0.98,-0.19c-0.25,-0.12 -0.4,-0.28 -0.4,-0.47l10.92,-23.07c0.28,-0.58 0.97,-1.1 1.95,-1.48c0.99,-0.37 2.2,-0.58 3.46,-0.58l11.8,0c3.44,0 6.56,0.67 8.82,1.75c2.34,1.11 3.66,2.63 3.65,4.2l0,19.18c0,0.19 -0.15,0.35 -0.4,0.47c-0.26,0.13 -0.62,0.2 -0.98,0.2l-37.85,0l0.01,-0.01Z" style="fill:#fff;stroke:#000;stroke-width:2.17px;"/>
        </g>
        <g id="shoulder_button_right_front">
            <path id="shadow7" d="M188.97,37.51l47.65,0c3.149,-0 5.74,2.591 5.74,5.74l0,6.89c0,1.262 -1.038,2.3 -2.3,2.3l-54.53,0c-1.262,0 -2.3,-1.038 -2.3,-2.3l0,-6.89c0,-3.149 2.591,-5.74 5.74,-5.74Z" style="fill-opacity:0.5;"/>
            <path id="shoulder_top_right" d="M234.82,37.86c0.007,-0 0.013,-0 0.02,-0c2.513,-0 4.58,2.067 4.58,4.58c0,0.007 0,0.013 -0,0.02l-0,6.88c0,0.003 0,0.007 0,0.01c0,0.625 -0.515,1.14 -1.14,1.14c-0.003,0 -0.007,0 -0.01,0l-54.54,0c-0.631,0 -1.15,-0.519 -1.15,-1.15l-0,-6.88c-0,-0.007 -0,-0.013 -0,-0.02c-0,-2.513 2.067,-4.58 4.58,-4.58c0.007,-0 0.013,-0 0.02,0l47.64,0Z" style="fill:#fff;stroke:#000;stroke-width:2.3px;"/>
        </g>
    </g>
    <g id="left_side_of_controller">
        <path d="M145,183.62l-43.69,0c-16.44,0 -22.32,6.16 -29.05,12.13l-37.58,33.17c-3.712,3.313 -9.098,4.032 -13.55,1.81c-14.36,-7.1 -21.13,-19.23 -21.13,-38.4c-0,-24.92 11.42,-65.99 32.4,-119.1c9.93,-25.18 27.69,-34.56 44.64,-34.56c7.93,0 15.69,2.05 22.4,5.5c14.564,7.511 30.095,11.206 45.56,11.198l0,128.252Z"/>
        <g id="stick_button_left" transform="matrix(1,0,0,1,-14.73,1.25)">
            <g id="stick_bg_left">
                <circle id="shadow10" cx="97.04" cy="175.08" r="26.46" style="fill-opacity:0.5;"/>
                <circle id="Oval5" cx="95.79" cy="173.84" r="25.21" style="fill:#fff;stroke:#000;stroke-width:2.49px;"/>
            </g>
            <g id="stick_left">
                <circle id="shadow11" cx="97.66" cy="175.71" r="17.12" style="fill-opacity:0.5;"/>
                <g id="Group-6">
                    <circle id="Oval-Copy" cx="95.79" cy="173.84" r="15.88" style="fill:#fff;stroke:#000;stroke-width:2.49px;"/>
                    <circle id="Oval-Copy-2" cx="95.79" cy="173.84" r="12.14" style="fill:#fff;stroke:#000;stroke-width:1.25px;"/>
                </g>
            </g>
        </g>
        <g id="select_button" transform="matrix(1,0,0,1,-25,12.5493)">
            <path id="shadow9" d="M135.52,126.34c0,-1.96 -1.59,-3.55 -3.55,-3.55l-6.76,0c-1.947,0 -3.55,1.603 -3.55,3.55c0,1.947 1.603,3.55 3.55,3.55l6.76,0c1.947,0 3.55,-1.603 3.55,-3.55Z" style="fill:#bbb;fill-opacity:0.5;"/>
            <path id="select" d="M134.17,125.67c0,-0.003 0,-0.007 0,-0.01c0,-1.574 -1.296,-2.87 -2.87,-2.87l-6.76,0c-1.577,0 -2.875,1.298 -2.875,2.875c0,1.577 1.298,2.875 2.875,2.875l6.76,0c1.572,-0.005 2.865,-1.298 2.87,-2.87Z" style="fill:#fff;stroke:#000;stroke-width:1.35px;"/>
        </g>
        <g id="d_pad">
            <g id="shadow14" transform="matrix(1,0,0,1,0,-9)">
                <path d="M86.5,80.24c0.88,0 1.6,0.72 1.6,1.6l0,17.56l17.56,0c0.88,0 1.6,0.72 1.6,1.6l0,14.36c0,0.88 -0.72,1.6 -1.6,1.6l-17.56,0l0,17.56c0,0.88 -0.72,1.6 -1.6,1.6l-14.36,0c-0.878,0 -1.6,-0.722 -1.6,-1.6l0,-17.56l-17.56,0c-0.878,0 -1.6,-0.722 -1.6,-1.6l-0,-14.36c-0,-0.87 0.72,-1.6 1.6,-1.6l17.56,0l-0,-17.56c-0,-0.87 0.72,-1.6 1.6,-1.6l14.36,0Z" style="fill:#9a9a9a;fill-opacity:0.5;"/>
            </g>
            <g transform="matrix(1,0,0,1,0,-9)">
                <path d="M84.9,78.64c0.88,0 1.6,0.72 1.6,1.6l0,17.56l17.57,0c0.87,0 1.6,0.72 1.6,1.6l0,14.37c0,0.87 -0.73,1.6 -1.6,1.6l-17.57,0l0,17.56c0,0.87 -0.72,1.6 -1.6,1.6l-14.35,0c-0.878,-0 -1.6,-0.722 -1.6,-1.6l-0,-17.57l-17.57,0c-0.878,0 -1.6,-0.722 -1.6,-1.6l-0,-14.36c-0,-0.88 0.72,-1.6 1.6,-1.6l17.56,0l-0,-17.56c-0,-0.88 0.72,-1.6 1.6,-1.6l14.36,0Z" style="fill:#fff;stroke:#000;stroke-width:1.6px;stroke-linejoin:round;"/>
            </g>
            <g id="d_pad_right" transform="matrix(1,0,0,1,0,-9)">
                <path d="M91.7,102.2l8.77,4.38l-8.78,4.4l0,-8.79l0.01,0.01Z" style="fill:none;stroke:#000;stroke-width:1.6px;stroke-linejoin:round;"/>
            </g>
            <g id="d_pad_up_left" transform="matrix(1,0,0,1,0,-9)">
                <path d="M63.75,110.97l-8.78,-4.39l8.78,-4.39l0,8.78Z" style="fill:none;stroke:#000;stroke-width:1.6px;stroke-linejoin:round;"/>
            </g>
            <g id="d_pad_down" transform="matrix(1,0,0,1,0,-9)">
                <path d="M82.11,120.55l-4.39,8.78l-4.39,-8.78l8.78,0Z" style="fill:none;stroke:#000;stroke-width:1.6px;stroke-linejoin:round;"/>
            </g>
            <g id="d_pad_up" transform="matrix(1,0,0,1,0,-9)">
                <path d="M73.33,92.61l4.4,-8.78l4.38,8.78l-8.78,0Z" style="fill:none;stroke:#000;stroke-width:1.6px;stroke-linejoin:round;"/>
            </g>
        </g>
        <g id="shoulder_trigger_left_back">
            <path id="shadow4" d="M54.74,33.57l37.84,0c1.52,0 2.77,-0.6 2.77,-1.32c0,-0.1 -0.02,-0.2 -0.07,-0.3l-10.9,-22.91c-0.7,-1.5 -3.53,-2.57 -6.75,-2.57l-11.8,0c-7.66,0 -13.86,2.96 -13.86,6.61l-0,19.18c-0,0.72 1.25,1.32 2.77,1.32l-0,-0.01Z" style="fill-opacity:0.5;"/>
            <path id="shoulder_bottom_left" d="M52.28,31.21c-0.38,0 -0.73,-0.07 -0.98,-0.19c-0.25,-0.12 -0.4,-0.28 -0.4,-0.47l0,-19.18c0,-1.64 1.4,-3.13 3.65,-4.2c2.783,-1.212 5.795,-1.809 8.83,-1.75l11.79,-0c1.26,-0 2.48,0.2 3.46,0.58c0.98,0.38 1.67,0.9 1.95,1.48l10.9,22.93c0.03,0.33 -0.13,0.5 -0.38,0.61c-0.26,0.13 -0.6,0.2 -0.98,0.2l-37.84,-0l0,-0.01Z" style="fill:#fff;stroke:#000;stroke-width:2.17px;"/>
        </g>
        <g id="shoulder_button_left_front">
            <path id="shadow5" d="M103.03,37.95l-47.65,0c-3.149,0 -5.74,2.591 -5.74,5.74l0,6.9c0.005,1.258 1.042,2.29 2.3,2.29l54.53,0c1.262,0 2.3,-1.038 2.3,-2.3l0,-6.88c0,-3.149 -2.591,-5.74 -5.74,-5.74l0,-0.01Z" style="fill-opacity:0.5;"/>
            <path id="shoulder_top_left" d="M101.23,38.3c0.007,-0 0.013,-0 0.02,-0c2.513,-0 4.58,2.067 4.58,4.58c0,0.007 0,0.013 0,0.02l0,6.89c0,0.003 0,0.007 0,0.01c0,0.625 -0.515,1.14 -1.14,1.14c-0.003,0 -0.007,0 -0.01,-0l-54.53,-0c-0.631,-0 -1.15,-0.519 -1.15,-1.15l-0,-6.9c-0,-2.513 2.067,-4.58 4.58,-4.58c0.003,-0 0.007,-0 0.01,-0l47.64,-0l0,-0.01Z" style="fill:#fff;stroke:#000;stroke-width:2.3px;"/>
        </g>
    </g>
</svg>
